<svg width="44" height="44" viewBox="0 0 44 44" fill="none" xmlns="http://www.w3.org/2000/svg">
<path d="M14.1958 9.0061C15.1896 9.0061 16.1498 9.36886 16.8956 10.0257L20.27 12.9984C20.609 13.2968 21.0453 13.4611 21.4969 13.4611H32.3947C34.6501 13.4611 36.4787 15.2897 36.4787 17.5451V30.9101C36.4787 33.1655 34.6501 34.9941 32.3947 34.9941H11.6053C9.34988 34.9941 7.52128 33.1655 7.52124 30.9101V13.0901C7.52124 10.8347 9.34986 9.0061 11.6053 9.0061H14.1958ZM26.86 23.0656C26.86 20.902 24.1805 20.1105 22.9223 21.5825C22.7828 21.7457 22.7127 21.8274 22.6684 21.8435C22.6181 21.8618 22.5986 21.862 22.5482 21.8443C22.5037 21.8286 22.4323 21.7469 22.2903 21.584C21.0416 20.1518 18.355 20.9379 18.355 23.0656C18.3552 25.2653 21.6877 27.7435 22.4524 28.2832C22.5051 28.3203 22.5316 28.3391 22.564 28.3472C22.5913 28.354 22.6237 28.354 22.651 28.3472C22.6833 28.3391 22.7099 28.3203 22.7625 28.2832C23.5273 27.7435 26.8598 25.2653 26.86 23.0656ZM11.6053 11.2336C10.5801 11.2336 9.74874 12.0649 9.74874 13.0901V13.4611H17.4255L15.4227 11.6971C15.0837 11.3986 14.6475 11.2336 14.1958 11.2336H11.6053Z" fill="url(#paint0_linear_2137_29169)"/>
<defs>
<linearGradient id="paint0_linear_2137_29169" x1="21.9999" y1="9.0063" x2="21.9999" y2="34.9938" gradientUnits="userSpaceOnUse">
<stop stop-color="#86F4DE"/>
<stop offset="1" stop-color="#68DCC4"/>
</linearGradient>
</defs>
</svg>
