<svg width="44" height="44" viewBox="0 0 44 44" fill="none" xmlns="http://www.w3.org/2000/svg">
<path d="M29.728 7C30.7272 7.00005 31.7321 7.16338 32.4324 7.88945C33.1234 8.606 33.2524 9.60053 33.2524 10.5253V28.2256C33.2524 29.0402 33.1441 29.8404 32.726 30.4879C32.466 30.8903 32.1293 31.1712 31.7521 31.3633V32.7247C31.7521 33.7228 31.5899 34.7275 30.8653 35.4282C30.1494 36.1203 29.1552 36.25 28.2304 36.25H12.2527C11.0101 36.25 10.0027 35.2426 10.0027 34V12.9256C10.0027 12.8374 10.0014 12.7453 10.001 12.6505C9.99735 11.9034 9.9934 10.9694 10.1978 10.1201C10.4476 9.08274 11.0251 8.07638 12.2545 7.45C12.7604 7.19221 13.2956 7.09137 13.8655 7.04482C14.4119 7.00021 15.0807 6.99998 15.8817 7H29.728ZM14.5027 31.75C13.2601 31.75 12.2527 32.7574 12.2527 34H28.2304C29.0485 34 29.2539 33.8562 29.3009 33.811C29.3384 33.7748 29.5021 33.5786 29.5021 32.7247V31.75H14.5027ZM24.5381 14.7458C23.6938 14.4698 22.7858 14.9309 22.5096 15.775L21.1279 19.9981C20.8976 19.8236 20.6357 19.6809 20.3457 19.5859C18.9436 19.1274 17.4347 19.8926 16.976 21.2945C16.5174 22.6964 17.282 24.2044 18.6837 24.6634C20.0418 25.1076 21.5007 24.4045 22.0077 23.0857L22.0543 22.9557L23.2566 19.2792L24.7464 19.7582C25.2195 19.91 25.7264 19.6494 25.8784 19.1764C26.0302 18.7033 25.7703 18.1964 25.2975 18.0443L23.8156 17.568L24.161 16.5159L25.5497 16.9703C26.0219 17.1246 26.5306 16.8675 26.6852 16.3955C26.8397 15.9232 26.5817 15.4138 26.1096 15.2591L24.5381 14.7458Z" fill="url(#paint0_linear_1689_13282)"/>
<defs>
<linearGradient id="paint0_linear_1689_13282" x1="31.0772" y1="9.025" x2="11.7272" y2="36.025" gradientUnits="userSpaceOnUse">
<stop stop-color="#FFC060"/>
<stop offset="1" stop-color="#FEA520"/>
</linearGradient>
</defs>
</svg>
