<svg width="44" height="44" viewBox="0 0 44 44" fill="none" xmlns="http://www.w3.org/2000/svg">
<path d="M23.6383 20.6C24.0111 20.6 24.1981 20.5998 24.3476 20.6686C24.4792 20.7293 24.5911 20.8272 24.6684 20.9498C24.7561 21.0891 24.7792 21.2746 24.8275 21.6441L24.9804 22.8087C24.9832 22.8299 24.9997 22.8469 25.0208 22.85C32.1949 23.7468 34.7713 28.6367 34.7714 34.8497C34.7714 34.8603 34.7721 34.8664 34.7714 34.8822C34.7552 35.2573 34.4284 35.5844 34.0533 35.6003H11.5639C11.0816 35.6003 10.8399 35.6 10.6674 35.5019C10.5162 35.4157 10.3997 35.2795 10.3378 35.1169C10.2673 34.9312 10.3037 34.6913 10.3782 34.2143L12.3461 21.6151C12.4022 21.2558 12.4303 21.0753 12.5184 20.9401C12.5965 20.8209 12.7084 20.7247 12.8383 20.6659C12.9855 20.5997 13.1687 20.6 13.5326 20.6H23.6383ZM26.5211 25.1C24.0361 25.1004 22.0211 27.1149 22.0211 29.6C22.0211 32.0851 24.0361 34.0996 26.5211 34.1C29.0064 34.1 31.0211 32.0853 31.0211 29.6C31.0211 27.1147 29.0064 25.1 26.5211 25.1ZM27.7806 27.4625C27.9947 27.4625 28.1971 27.5025 28.373 27.5829C28.7595 27.7595 29.0215 28.136 29.0216 28.7325C29.0215 28.8106 29.0152 28.8899 29.0014 28.9689C28.9322 29.3647 28.7002 29.7684 28.4081 30.1405C28.3496 30.215 28.2887 30.2886 28.2262 30.3603C28.039 30.5749 27.8374 30.7755 27.6435 30.9535C27.2548 31.3105 26.8956 31.5769 26.7452 31.6848C26.721 31.7021 26.7076 31.7116 26.6925 31.7155C26.6795 31.7186 26.6632 31.7188 26.6503 31.7155C26.6349 31.7115 26.6208 31.7027 26.5958 31.6848C26.395 31.5406 25.8265 31.1149 25.3082 30.5694C25.2437 30.5015 25.1797 30.4316 25.1175 30.3603C24.6803 29.8585 24.3213 29.2795 24.3212 28.7316C24.3216 28.0319 24.8772 27.4632 25.5613 27.4625C25.9481 27.4627 26.2955 27.6444 26.5229 27.9283C26.5871 28.0087 26.6195 28.0505 26.6415 28.0593C26.6654 28.0682 26.6775 28.0681 26.7013 28.0593C26.7233 28.0507 26.7557 28.0086 26.8199 27.9283C27.0472 27.6445 27.3939 27.4628 27.7806 27.4625ZM18.2497 8C21.1491 8 23.5002 10.3503 23.5003 13.2497C23.5003 16.1492 21.1492 18.5003 18.2497 18.5003C15.3504 18.5001 13 16.1491 13 13.2497C13.0002 10.3504 15.3504 8.00015 18.2497 8Z" fill="url(#paint0_linear_1693_13373)"/>
<defs>
<linearGradient id="paint0_linear_1693_13373" x1="16.6" y1="10.7" x2="30.55" y2="35.9" gradientUnits="userSpaceOnUse">
<stop offset="0.0546752" stop-color="#FF7BA4"/>
<stop offset="0.355769" stop-color="#FF7BA4"/>
<stop offset="0.903846" stop-color="#F7598A"/>
</linearGradient>
</defs>
</svg>
