<svg width="44" height="44" viewBox="0 0 44 44" fill="none" xmlns="http://www.w3.org/2000/svg">
<path d="M23.3383 20.6C23.7111 20.6 23.8981 20.5998 24.0476 20.6686C24.1792 20.7293 24.2911 20.8272 24.3684 20.9498C24.4561 21.0891 24.4793 21.2746 24.5275 21.6441L24.6804 22.8087C24.6832 22.8299 24.6997 22.8469 24.7208 22.85C31.8949 23.7468 34.4713 28.6367 34.4714 34.8497C34.4714 34.8603 34.4721 34.8664 34.4714 34.8822C34.4553 35.2573 34.1284 35.5844 33.7533 35.6003H11.2639C10.7816 35.6003 10.5399 35.6 10.3674 35.5019C10.2162 35.4157 10.0997 35.2795 10.0378 35.1169C9.96734 34.9312 10.0038 34.6913 10.0783 34.2143L12.0461 21.6151C12.1022 21.2558 12.1303 21.0753 12.2184 20.9401C12.2965 20.8209 12.4084 20.7247 12.5383 20.6659C12.6855 20.5997 12.8687 20.6 13.2326 20.6H23.3383ZM26.2211 25.1C23.7362 25.1004 21.7211 27.1149 21.7211 29.6C21.7211 32.0851 23.7362 34.0996 26.2211 34.1C28.7064 34.1 30.7211 32.0853 30.7211 29.6C30.7211 27.1147 28.7064 25.1 26.2211 25.1ZM27.4806 27.4625C27.6947 27.4625 27.8971 27.5025 28.073 27.5829C28.4595 27.7595 28.7215 28.136 28.7216 28.7325C28.7215 28.8106 28.7152 28.8899 28.7014 28.9689C28.6322 29.3647 28.4002 29.7684 28.1081 30.1405C28.0496 30.215 27.9887 30.2886 27.9262 30.3603C27.739 30.5749 27.5374 30.7755 27.3435 30.9535C26.9548 31.3105 26.5956 31.5769 26.4452 31.6848C26.421 31.7021 26.4076 31.7116 26.3925 31.7155C26.3795 31.7186 26.3632 31.7188 26.3503 31.7155C26.335 31.7115 26.3208 31.7027 26.2958 31.6848C26.095 31.5406 25.5265 31.1149 25.0082 30.5694C24.9437 30.5015 24.8797 30.4316 24.8175 30.3603C24.3803 29.8585 24.0213 29.2795 24.0212 28.7316C24.0216 28.0319 24.5772 27.4632 25.2614 27.4625C25.6481 27.4627 25.9955 27.6444 26.2229 27.9283C26.2871 28.0087 26.3195 28.0505 26.3415 28.0593C26.3654 28.0682 26.3775 28.0681 26.4013 28.0593C26.4233 28.0507 26.4557 28.0086 26.52 27.9283C26.7472 27.6445 27.0939 27.4628 27.4806 27.4625ZM17.9497 8C20.8491 8 23.2002 10.3503 23.2003 13.2497C23.2003 16.1492 20.8492 18.5003 17.9497 18.5003C15.0504 18.5001 12.7 16.1491 12.7 13.2497C12.7002 10.3504 15.0505 8.00015 17.9497 8Z" fill="url(#paint0_linear_1693_13528)"/>
<defs>
<linearGradient id="paint0_linear_1693_13528" x1="16.3001" y1="10.7" x2="30.25" y2="35.9001" gradientUnits="userSpaceOnUse">
<stop offset="0.0961539" stop-color="#FFC5D9"/>
<stop offset="0.942308" stop-color="#FF8AAE"/>
</linearGradient>
</defs>
</svg>
