<svg width="44" height="44" viewBox="0 0 44 44" fill="none" xmlns="http://www.w3.org/2000/svg">
<path d="M26.0749 24.4742C26.1997 24.7708 26.4737 24.9783 26.793 25.0183C27.1121 25.0581 27.4286 24.925 27.6227 24.6685L29.4086 22.306H34.711C34.483 22.7489 34.2365 23.1851 33.9754 23.6129C32.6492 25.7853 30.8989 27.834 29.1774 29.5868C27.4522 31.3434 25.7314 32.829 24.4437 33.8741C23.7991 34.3973 23.2605 34.8117 22.8818 35.0967C22.6925 35.2392 22.543 35.3501 22.4397 35.4254C22.3881 35.463 22.3478 35.4917 22.3202 35.5115L22.2877 35.5344L22.2754 35.5432C21.8859 35.819 21.3642 35.8189 20.9746 35.5432L20.9623 35.5344L20.9298 35.5115C20.9022 35.4917 20.8619 35.463 20.8103 35.4254C20.707 35.3501 20.5575 35.2392 20.3682 35.0967C19.9895 34.8117 19.4509 34.3973 18.8063 33.8741C17.5186 32.829 15.7978 31.3434 14.0726 29.5868C12.3511 27.834 10.5999 25.7853 9.27373 23.6129C9.01268 23.1853 8.76691 22.7487 8.53896 22.306H15.775C16.0748 22.306 16.3549 22.1566 16.5221 21.9078L17.3544 20.6668L19.6633 26.697C19.798 27.0487 20.1374 27.2796 20.5141 27.2753C20.8906 27.2709 21.2242 27.0323 21.3508 26.6776L23.9436 19.4091L26.0749 24.4742ZM27.9997 8C30.1903 8 32.2762 8.66793 33.8198 10.1586C35.3729 11.6584 36.25 13.8684 36.25 16.6959C36.25 17.9793 35.9709 19.2595 35.5091 20.506H28.9604C28.7137 20.506 28.4794 20.607 28.3108 20.7828L28.2432 20.8628L27.1278 22.3358L24.7047 16.5764C24.5607 16.2342 24.2214 16.0151 23.8504 16.0253C23.5256 16.0343 23.2343 16.2174 23.0831 16.4973L23.0277 16.6229L20.4728 23.7799L18.4152 18.4036C18.2951 18.0898 18.01 17.8693 17.6761 17.8314C17.384 17.7984 17.0971 17.9097 16.9044 18.125L16.8279 18.2234L15.2951 20.506H7.74092C7.27907 19.2595 7.00004 17.9793 7 16.6959C7 11.9588 10.6307 8 15.2503 8C17.8369 8.00009 20.122 9.25043 21.625 11.1764C23.128 9.25043 25.4131 8.00009 27.9997 8Z" fill="url(#paint0_linear_1693_13504)"/>
<defs>
<linearGradient id="paint0_linear_1693_13504" x1="21.625" y1="8" x2="21.625" y2="35.75" gradientUnits="userSpaceOnUse">
<stop stop-color="#FF9A8B"/>
<stop offset="1" stop-color="#FF6F61"/>
</linearGradient>
</defs>
</svg>
