<svg width="42" height="29" viewBox="0 0 42 29" fill="none" xmlns="http://www.w3.org/2000/svg">
<mask id="mask0_3304_22495" style="mask-type:alpha" maskUnits="userSpaceOnUse" x="0" y="0" width="42" height="29">
<path d="M0 2C0 0.8954 0.8954 0 2 0H40C41.1046 0 42 0.8954 42 2V27C42 28.1046 41.1046 29 40 29H2C0.8954 29 0 28.1046 0 27V2Z" fill="#F0F0F0"/>
</mask>
<g mask="url(#mask0_3304_22495)">
<path d="M21 17C15.6429 17 -4 -2 -4 -2H46C46 -2 26.3571 17 21 17Z" fill="url(#paint0_linear_3304_22495)"/>
<path opacity="0.1" d="M21 17C15.6429 17 -4 -2 -4 -2H46C46 -2 26.3571 17 21 17Z" fill="url(#paint1_linear_3304_22495)"/>
</g>
<defs>
<linearGradient id="paint0_linear_3304_22495" x1="21" y1="-2" x2="21" y2="17" gradientUnits="userSpaceOnUse">
<stop stop-color="#FFEC60"/>
<stop offset="1" stop-color="#FBE22C"/>
</linearGradient>
<linearGradient id="paint1_linear_3304_22495" x1="21" y1="-2" x2="21" y2="17" gradientUnits="userSpaceOnUse">
<stop stop-color="white" stop-opacity="0"/>
<stop offset="1" stop-color="white"/>
</linearGradient>
</defs>
</svg>
