<svg width="44" height="44" viewBox="0 0 44 44" fill="none" xmlns="http://www.w3.org/2000/svg">
<path d="M28.7396 16.0001C29.8626 16.0001 30.6434 16.6662 31.0106 17.5004H32.3747C35.067 17.5004 37.2498 19.6825 37.25 22.3748C37.25 25.0672 35.0671 27.2501 32.3747 27.2501H31.2497V29.1257C31.2496 33.0606 28.0594 36.2501 24.1244 36.2501H15.1244C11.1896 36.2499 8.00014 33.0605 8 29.1257V18.5094C8 17.1233 9.12326 16.0001 10.5093 16.0001H28.7396ZM22.3499 21.6251C21.6084 21.6251 20.9459 21.9726 20.5104 22.5172C20.3863 22.6723 20.3241 22.7501 20.2818 22.7659C20.2358 22.7831 20.2137 22.7831 20.1676 22.7659C20.1254 22.7501 20.0631 22.6723 19.9391 22.5172C19.5035 21.9726 18.841 21.6251 18.0995 21.6251C16.7879 21.6252 15.7247 22.713 15.7247 24.0544C15.7249 26.4519 19.3138 29.1549 20.0814 29.7057C20.1301 29.7407 20.1543 29.7588 20.1843 29.7664C20.2097 29.7729 20.2397 29.7729 20.2651 29.7664C20.2951 29.7588 20.3193 29.7407 20.368 29.7057C21.1356 29.1549 24.7245 26.4519 24.7247 24.0544C24.7247 22.3925 23.6615 21.6252 22.3499 21.6251ZM17.189 7.50105C17.5336 6.98416 18.2321 6.84441 18.749 7.18904C19.2658 7.5337 19.4056 8.23219 19.061 8.7491L16.0604 13.2491C15.7158 13.7659 15.0173 13.9057 14.5004 13.5611C13.9837 13.2164 13.8439 12.5179 14.1884 12.0011L17.189 7.50105ZM21.689 7.50105C22.0336 6.98416 22.7321 6.84441 23.249 7.18904C23.7658 7.5337 23.9056 8.23219 23.561 8.7491L20.5604 13.2491C20.2158 13.7659 19.5173 13.9057 19.0004 13.5611C18.4837 13.2164 18.3439 12.5179 18.6884 12.0011L21.689 7.50105ZM26.189 7.50105C26.5336 6.98416 27.2321 6.84441 27.749 7.18904C28.2658 7.5337 28.4056 8.23219 28.061 8.7491L25.0604 13.2491C24.7158 13.7659 24.0173 13.9057 23.5004 13.5611C22.9837 13.2164 22.8439 12.5179 23.1884 12.0011L26.189 7.50105Z" fill="url(#paint0_linear_1700_13323)"/>
<defs>
<linearGradient id="paint0_linear_1700_13323" x1="22.625" y1="7" x2="22.625" y2="36.2501" gradientUnits="userSpaceOnUse">
<stop stop-color="#BDF4FF"/>
<stop offset="1" stop-color="#52D6FF"/>
</linearGradient>
</defs>
</svg>
