<svg width="44" height="44" viewBox="0 0 44 44" fill="none" xmlns="http://www.w3.org/2000/svg">
<path d="M13.8378 11.4762C13.8581 12.4318 14.5247 13.375 15.9249 13.375H20.4355C20.267 12.9763 20.05 12.5321 19.7776 12.0919C18.9458 10.7476 17.7281 9.625 15.9249 9.625C15.0922 9.625 14.591 9.89989 14.2981 10.21C13.9917 10.5344 13.8274 10.9879 13.8378 11.4762ZM23.5643 13.375H28.075C28.8866 13.375 29.3985 13.1028 29.709 12.7812C30.0325 12.446 30.2078 11.9839 30.2078 11.5C30.2078 11.0161 30.0325 10.554 29.709 10.2188C29.3985 9.89722 28.8866 9.625 28.075 9.625C26.2718 9.625 25.0541 10.7476 24.2223 12.092C23.9499 12.5321 23.7329 12.9763 23.5643 13.375ZM35.125 23.125V32.5C35.125 34.7782 33.2782 36.625 31 36.625H13C10.7218 36.625 8.875 34.7782 8.875 32.5V23.125H8.5C7.87868 23.125 7.375 22.6213 7.375 22V17.5C7.375 15.2218 9.22183 13.375 11.5 13.375H12.0554C11.7603 12.7984 11.6018 12.1605 11.5883 11.5238C11.5669 10.5121 11.9061 9.46562 12.6624 8.66498C13.4321 7.85011 14.5528 7.375 15.9249 7.375C18.8467 7.375 20.6666 9.25245 21.691 10.9081C21.8016 11.0868 21.9044 11.2652 21.9999 11.4411C22.0954 11.2652 22.1983 11.0868 22.3089 10.908C23.3333 9.25244 25.1532 7.375 28.075 7.375C29.4353 7.375 30.5523 7.85278 31.3278 8.65618C32.0902 9.44597 32.4578 10.4839 32.4578 11.5C32.4578 12.1387 32.3126 12.7861 32.0153 13.375H32.5C34.7782 13.375 36.625 15.2218 36.625 17.5V22C36.625 22.6213 36.1213 23.125 35.5 23.125H35.125ZM32.875 23.125H23.125V34.375H31C32.0355 34.375 32.875 33.5355 32.875 32.5V23.125ZM20.875 34.375V23.125H11.125V32.5C11.125 33.5355 11.9645 34.375 13 34.375H20.875Z" fill="url(#paint0_linear_1700_13324)"/>
<defs>
<linearGradient id="paint0_linear_1700_13324" x1="22" y1="7.375" x2="22" y2="36.625" gradientUnits="userSpaceOnUse">
<stop stop-color="#E7C3FF"/>
<stop offset="1" stop-color="#BA85FF"/>
</linearGradient>
</defs>
</svg>
