<svg width="44" height="44" viewBox="0 0 44 44" fill="none" xmlns="http://www.w3.org/2000/svg">
<path d="M13.4628 11.1012C13.4831 12.0568 14.1497 13 15.5499 13H20.0605C19.892 12.6013 19.675 12.1571 19.4026 11.7169C18.5708 10.3726 17.3531 9.25 15.5499 9.25C14.7172 9.25 14.216 9.52489 13.9231 9.83502C13.6167 10.1594 13.4524 10.6129 13.4628 11.1012ZM23.1893 13H27.7C28.5116 13 29.0235 12.7278 29.334 12.4062C29.6575 12.071 29.8328 11.6089 29.8328 11.125C29.8328 10.6411 29.6575 10.179 29.334 9.84382C29.0235 9.52222 28.5116 9.25 27.7 9.25C25.8968 9.25 24.6791 10.3726 23.8473 11.717C23.5749 12.1571 23.3578 12.6013 23.1893 13ZM34.75 22.75V32.125C34.75 34.4032 32.9032 36.25 30.625 36.25H12.625C10.3468 36.25 8.5 34.4032 8.5 32.125V22.75H8.125C7.50368 22.75 7 22.2463 7 21.625V17.125C7 14.8468 8.84683 13 11.125 13H11.6804C11.3853 12.4234 11.2268 11.7855 11.2133 11.1488C11.1919 10.1371 11.5311 9.09062 12.2874 8.28998C13.0571 7.47511 14.1778 7 15.5499 7C18.4717 7 20.2916 8.87745 21.316 10.5331C21.4266 10.7118 21.5294 10.8902 21.6249 11.0661C21.7204 10.8902 21.8233 10.7118 21.9339 10.533C22.9583 8.87744 24.7782 7 27.7 7C29.0603 7 30.1773 7.47778 30.9528 8.28118C31.7152 9.07097 32.0828 10.1089 32.0828 11.125C32.0828 11.7637 31.9376 12.4111 31.6403 13H32.125C34.4032 13 36.25 14.8468 36.25 17.125V21.625C36.25 22.2463 35.7463 22.75 35.125 22.75H34.75ZM32.5 22.75H22.75V34H30.625C31.6605 34 32.5 33.1605 32.5 32.125V22.75ZM20.5 34V22.75H10.75V32.125C10.75 33.1605 11.5895 34 12.625 34H20.5Z" fill="url(#paint0_linear_1692_13309)"/>
<defs>
<linearGradient id="paint0_linear_1692_13309" x1="21.625" y1="7" x2="21.625" y2="36.25" gradientUnits="userSpaceOnUse">
<stop stop-color="#CE87FF"/>
<stop offset="1" stop-color="#9952CA"/>
</linearGradient>
</defs>
</svg>
