<svg width="44" height="44" viewBox="0 0 44 44" fill="none" xmlns="http://www.w3.org/2000/svg">
<path d="M33.9926 9.00005C34.5559 8.99466 35.0363 9.40661 35.1167 9.96421C35.2044 10.5719 35.2494 11.1926 35.2494 11.8231C35.2494 18.6459 29.9641 24.2299 23.2497 24.7958V34.1245C23.2497 34.7458 22.746 35.2495 22.1247 35.2495C21.5034 35.2494 20.9997 34.7458 20.9997 34.1245V24.7958C14.2853 24.2299 9 18.6459 9 11.8231C9.00001 11.1926 9.04505 10.5719 9.13271 9.96421C9.21315 9.40666 9.69358 8.99473 10.2568 9.00005C15.5479 9.05205 20.0979 12.2126 22.1247 16.7362C24.1515 12.2126 28.7015 9.05205 33.9926 9.00005ZM32.2022 15.4073C31.7954 15.2219 31.3148 15.4022 31.1291 15.8089C30.1533 17.9481 28.7519 20.0959 25.9515 20.896C25.5218 21.0193 25.2732 21.4681 25.396 21.898C25.5191 22.3277 25.9672 22.5761 26.3971 22.4535C29.8964 21.4536 31.5674 18.7508 32.603 16.4804C32.7882 16.0736 32.6089 15.5929 32.2022 15.4073Z" fill="url(#paint0_linear_1693_13509)"/>
<defs>
<linearGradient id="paint0_linear_1693_13509" x1="15.3747" y1="10.4248" x2="25.2747" y2="32.9248" gradientUnits="userSpaceOnUse">
<stop offset="0.142717" stop-color="#7BE87F"/>
<stop offset="0.969241" stop-color="#00C96B"/>
</linearGradient>
</defs>
</svg>
