<svg width="40" height="40" viewBox="0 0 40 40" fill="none" xmlns="http://www.w3.org/2000/svg">
<circle cx="20" cy="20" r="20" fill="#5CA771"/>
<path d="M26.6464 12.1297C27.7472 11.6083 28.8944 12.7555 28.3729 13.8563L22.3651 30.7606C21.8441 31.8606 20.2316 31.7012 19.9364 30.5203L16.3456 24.157L9.98231 20.5662C8.8016 20.271 8.64153 18.6588 9.7411 18.1375L26.6464 12.1297ZM22.6366 17.3631C22.2851 17.0116 21.7146 17.0116 21.3632 17.3631L17.8632 20.8631C17.5117 21.2146 17.5117 21.7851 17.8632 22.1365C18.2147 22.4878 18.7852 22.4879 19.1366 22.1365L22.6366 18.6365C22.988 18.2851 22.9879 17.7146 22.6366 17.3631Z" fill="white"/>
</svg>
