<svg width="54" height="22" viewBox="0 0 54 22" fill="none" xmlns="http://www.w3.org/2000/svg">
<rect width="54" height="22" rx="11" fill="white"/>
<path d="M18.6436 8.124V5.7H20.1796V11.976H18.6436V9.432H16.6756V8.124H18.6436ZM13.8796 10.056C13.3116 10.8 12.4396 11.472 11.2636 12.072L10.5316 10.86C11.4676 10.356 12.1516 9.84 12.5836 9.312C13.0156 8.784 13.2476 8.188 13.2796 7.524H10.9756V6.168H17.0836V7.524H14.7676C14.7596 7.956 14.6836 8.396 14.5396 8.844L17.5036 10.656L16.7476 11.904L13.8796 10.056ZM18.6436 13.968H12.4396V12.588H20.1796V17.016H18.6436V13.968ZM29.5545 10.812H32.2785V12.108H21.7185V10.812H24.4425V9.732C23.9545 9.58 23.5745 9.344 23.3025 9.024C23.0305 8.704 22.8945 8.312 22.8945 7.848C22.8945 7.176 23.1745 6.664 23.7345 6.312C24.3025 5.96 25.0665 5.784 26.0265 5.784H27.9825C28.9345 5.784 29.6945 5.96 30.2625 6.312C30.8305 6.664 31.1145 7.176 31.1145 7.848C31.1145 8.312 30.9785 8.704 30.7065 9.024C30.4345 9.344 30.0505 9.58 29.5545 9.732V10.812ZM24.4185 7.86C24.4185 8.132 24.5785 8.34 24.8985 8.484C25.2265 8.62 25.6985 8.688 26.3145 8.688H27.6945C28.3025 8.688 28.7665 8.62 29.0865 8.484C29.4145 8.34 29.5785 8.132 29.5785 7.86C29.5785 7.596 29.4145 7.396 29.0865 7.26C28.7665 7.124 28.3025 7.056 27.6945 7.056H26.3145C25.6985 7.056 25.2265 7.124 24.8985 7.26C24.5785 7.396 24.4185 7.596 24.4185 7.86ZM25.8825 9.948V10.812H28.1145V9.948H25.8825ZM28.3305 12.864C28.9145 12.864 29.4185 12.956 29.8425 13.14C30.2745 13.316 30.6025 13.56 30.8265 13.872C31.0585 14.184 31.1745 14.54 31.1745 14.94C31.1745 15.34 31.0625 15.696 30.8385 16.008C30.6145 16.328 30.2865 16.576 29.8545 16.752C29.4225 16.928 28.9145 17.016 28.3305 17.016H25.6665C25.0825 17.016 24.5745 16.928 24.1425 16.752C23.7185 16.576 23.3945 16.328 23.1705 16.008C22.9465 15.696 22.8345 15.34 22.8345 14.94C22.8345 14.54 22.9465 14.184 23.1705 13.872C23.3945 13.56 23.7185 13.316 24.1425 13.14C24.5745 12.956 25.0825 12.864 25.6665 12.864H28.3305ZM28.0545 15.684C29.1105 15.684 29.6385 15.432 29.6385 14.928C29.6385 14.432 29.1105 14.184 28.0545 14.184H25.9545C24.8905 14.184 24.3585 14.432 24.3585 14.928C24.3585 15.432 24.8905 15.684 25.9545 15.684H28.0545ZM41.1615 12.204V5.688H42.6975V12.204H41.1615ZM40.5255 11.82C39.6775 11.932 38.7495 12.02 37.7415 12.084C36.7415 12.148 35.8135 12.18 34.9575 12.18H33.1575L33.0855 10.872H35.1015C35.4375 10.872 35.6975 10.868 35.8815 10.86V9.888H33.7335V6.048H39.5055V7.272H35.1855V8.664H39.6135V9.888H37.4175V10.8C38.5615 10.728 39.5455 10.64 40.3695 10.536L40.5255 11.82ZM42.6975 16.896H34.9575V12.816H42.6975V16.896ZM41.1615 14.088H36.5055V15.6H41.1615V14.088Z" fill="black"/>
</svg>
