<svg width="81" height="80" viewBox="0 0 81 80" fill="none" xmlns="http://www.w3.org/2000/svg">
<path d="M0.5 40C0.5 17.9086 18.4086 0 40.5 0C62.5914 0 80.5 17.9086 80.5 40C80.5 62.0914 62.5914 80 40.5 80C18.4086 80 0.5 62.0914 0.5 40Z" fill="#DADADA"/>
<path d="M55.5 27C55.5 18.7157 48.7843 12 40.5 12C32.2157 12 25.5 18.7157 25.5 27C25.5 35.2843 32.2157 42 40.5 42C48.7843 42 55.5 35.2843 55.5 27Z" fill="#949393"/>
<path d="M40.2764 47.374C53.7627 47.374 64.7553 58.0413 65.2822 71.3984C58.468 76.7841 49.8599 80 40.5 80C30.9405 80 22.166 76.6444 15.2852 71.0498C15.9877 57.8562 26.9076 47.3741 40.2764 47.374Z" fill="#949393"/>
<rect x="56.5" y="56" width="24" height="24" rx="12" fill="#202020"/>
<path d="M68 72V68.5H64.5C64.2239 68.5 64 68.2761 64 68C64 67.7239 64.2239 67.5 64.5 67.5H68V64C68 63.7239 68.2239 63.5 68.5 63.5C68.7761 63.5 69 63.7239 69 64V67.5H72.5L72.5514 67.5026C72.8034 67.5283 73 67.7412 73 68C73 68.2588 72.8034 68.4716 72.5514 68.4974L72.5 68.5H69V72C69 72.2761 68.7761 72.5 68.5 72.5C68.2239 72.5 68 72.2761 68 72Z" fill="white"/>
</svg>
