<svg width="80" height="80" viewBox="0 0 80 80" fill="none" xmlns="http://www.w3.org/2000/svg">
<path d="M0 40C0 17.9086 17.9086 0 40 0C62.0914 0 80 17.9086 80 40C80 62.0914 62.0914 80 40 80C17.9086 80 0 62.0914 0 40Z" fill="#DADADA"/>
<path d="M55 27C55 18.7157 48.2843 12 40 12C31.7157 12 25 18.7157 25 27C25 35.2843 31.7157 42 40 42C48.2843 42 55 35.2843 55 27Z" fill="#949393"/>
<path d="M39.7764 47.374C53.2627 47.374 64.2553 58.0413 64.7822 71.3984C57.968 76.7841 49.3599 80 40 80C30.4405 80 21.666 76.6444 14.7852 71.0498C15.4877 57.8562 26.4076 47.3741 39.7764 47.374Z" fill="#949393"/>
<rect x="56" y="56" width="24" height="24" rx="12" fill="#202020"/>
<path d="M67.5 72V68.5H64C63.7239 68.5 63.5 68.2761 63.5 68C63.5 67.7239 63.7239 67.5 64 67.5H67.5V64C67.5 63.7239 67.7239 63.5 68 63.5C68.2761 63.5 68.5 63.7239 68.5 64V67.5H72L72.0514 67.5026C72.3034 67.5283 72.5 67.7412 72.5 68C72.5 68.2588 72.3034 68.4716 72.0514 68.4974L72 68.5H68.5V72C68.5 72.2761 68.2761 72.5 68 72.5C67.7239 72.5 67.5 72.2761 67.5 72Z" fill="white"/>
</svg>
