<svg width="20" height="20" viewBox="0 0 20 20" fill="none" xmlns="http://www.w3.org/2000/svg">
<path d="M7.80583 1.875H12.1942C13.1043 1.875 13.8255 1.87499 14.4069 1.92249C15.0014 1.97106 15.5044 2.0724 15.9637 2.30643C16.7085 2.68593 17.3141 3.29148 17.6936 4.03629C17.9276 4.4956 18.0289 4.99862 18.0775 5.59311C18.125 6.17446 18.125 6.8957 18.125 7.80582V12.1942C18.125 13.1043 18.125 13.8255 18.0775 14.4069C18.0289 15.0014 17.9276 15.5044 17.6936 15.9637C17.3141 16.7085 16.7085 17.3141 15.9637 17.6936C15.5044 17.9276 15.0014 18.0289 14.4069 18.0775C13.8255 18.125 13.1043 18.125 12.1942 18.125H7.80582C6.8957 18.125 6.17446 18.125 5.59311 18.0775C4.99862 18.0289 4.4956 17.9276 4.03629 17.6936C3.29148 17.3141 2.68593 16.7085 2.30643 15.9637C2.0724 15.5044 1.97106 15.0014 1.92249 14.4069C1.87499 13.8255 1.875 13.1043 1.875 12.1942V7.80583C1.875 6.89571 1.87499 6.17446 1.92249 5.59311C1.97106 4.99862 2.0724 4.4956 2.30643 4.03629C2.68593 3.29148 3.29148 2.68593 4.03629 2.30643C4.4956 2.0724 4.99862 1.97106 5.59311 1.92249C6.17446 1.87499 6.89572 1.875 7.80583 1.875ZM13.1438 7.24332C12.864 7.04122 12.4733 7.10424 12.2712 7.38407L9.2732 11.5351C9.19477 11.6437 9.03572 11.6511 8.94752 11.5503L7.69266 10.1162C7.46536 9.85644 7.07051 9.83011 6.81073 10.0574C6.55096 10.2847 6.52464 10.6796 6.75194 10.9393L8.00679 12.3735C8.62424 13.0791 9.73756 13.0271 10.2865 12.267L13.2845 8.11593C13.4866 7.8361 13.4236 7.44542 13.1438 7.24332Z" fill="#202020"/>
</svg>
