<svg width="21" height="20" viewBox="0 0 21 20" fill="none" xmlns="http://www.w3.org/2000/svg">
<path d="M17.2083 7.83366C17.2083 6.88999 17.208 6.21946 17.1652 5.69499C17.1282 5.24236 17.0619 4.94051 16.9593 4.70215L16.9129 4.60368C16.6857 4.15781 16.3403 3.78477 15.916 3.52458L15.7297 3.42041C15.4759 3.29113 15.1555 3.21039 14.6384 3.16813C14.1139 3.12529 13.4434 3.125 12.4997 3.125H8.167C7.22332 3.125 6.55279 3.12529 6.02832 3.16813C5.5757 3.20511 5.27384 3.27143 5.03549 3.37402L4.93702 3.42041C4.49115 3.64763 4.1181 3.99308 3.85791 4.41732L3.75375 4.60368C3.62447 4.85741 3.54372 5.1778 3.50147 5.69499C3.45862 6.21946 3.45834 6.88999 3.45834 7.83366V12.1663C3.45834 13.11 3.45862 13.7805 3.50147 14.305C3.54372 14.8222 3.62447 15.1426 3.75375 15.3963L3.85791 15.5827C4.1181 16.0069 4.49115 16.3524 4.93702 16.5796L5.03549 16.626C5.27384 16.7286 5.5757 16.7949 6.02832 16.8319C6.55279 16.8747 7.22332 16.875 8.167 16.875H12.4997C13.4434 16.875 14.1139 16.8747 14.6384 16.8319C15.1555 16.7896 15.4759 16.7089 15.7297 16.5796L15.916 16.4754C16.3403 16.2152 16.6857 15.8422 16.9129 15.3963L16.9593 15.2979C17.0619 15.0595 17.1282 14.7576 17.1652 14.305C17.208 13.7805 17.2083 13.11 17.2083 12.1663V7.83366ZM12.6445 7.33399C12.855 7.09735 13.2148 7.05422 13.4771 7.24365C13.7567 7.44579 13.8199 7.83628 13.6178 8.11605L10.6198 12.2673C10.1051 12.9797 9.09462 13.0696 8.46159 12.4967L8.34034 12.3739L7.08545 10.9391L8.02621 10.1164L9.28109 11.5503L9.3169 11.5828C9.40751 11.6476 9.53797 11.6299 9.60661 11.5348L12.6047 7.38444L12.6445 7.33399ZM7.14405 10.0578C7.40382 9.83048 7.79891 9.8566 8.02621 10.1164L7.08545 10.9391C6.85819 10.6794 6.88441 10.2851 7.14405 10.0578ZM18.4583 12.1663C18.4583 13.0894 18.4591 13.8196 18.4111 14.4067C18.3686 14.927 18.2853 15.3772 18.1084 15.7894L18.027 15.9635C17.695 16.6153 17.1896 17.1604 16.5695 17.5407L16.2969 17.6937C15.8376 17.9277 15.3345 18.0292 14.7401 18.0778C14.1529 18.1258 13.4227 18.125 12.4997 18.125H8.167C7.24398 18.125 6.51376 18.1258 5.9266 18.0778C5.40637 18.0353 4.95609 17.9519 4.54395 17.7751L4.3698 17.6937C3.71807 17.3616 3.17297 16.8562 2.79265 16.2362L2.63965 15.9635C2.40569 15.5043 2.3041 15.0012 2.25554 14.4067C2.20758 13.8196 2.20834 13.0894 2.20834 12.1663V7.83366C2.20834 6.91064 2.20758 6.18043 2.25554 5.59326C2.3041 4.99885 2.40569 4.49572 2.63965 4.03646L2.79265 3.76384C3.17297 3.14376 3.71807 2.63839 4.3698 2.30632L4.54395 2.22494C4.95609 2.04806 5.40637 1.96471 5.9266 1.9222C6.51376 1.87424 7.24398 1.875 8.167 1.875H12.4997C13.4227 1.875 14.1529 1.87424 14.7401 1.9222C15.3345 1.97077 15.8376 2.07235 16.2969 2.30632L16.5695 2.45931C17.1896 2.83964 17.695 3.38473 18.027 4.03646L18.1084 4.21061C18.2853 4.62276 18.3686 5.07303 18.4111 5.59326C18.4591 6.18043 18.4583 6.91064 18.4583 7.83366V12.1663Z" fill="#D0D0D0"/>
</svg>
