<svg width="153" height="30" viewBox="0 0 153 30" fill="none" xmlns="http://www.w3.org/2000/svg">
<g clip-path="url(#clip0_808_16788)">
<path d="M0 1.33569H9.73542C16.9586 1.33569 21.888 5.78984 21.888 12.4711C21.888 19.1523 16.9561 23.6064 9.73542 23.6064H0V1.33569ZM9.54534 20.1078C14.5081 20.1078 17.7215 17.0845 17.7215 12.4711C17.7215 7.85766 14.5081 4.83428 9.54534 4.83428H4.13563V20.1053H9.54534V20.1078Z" fill="#ED4F4F"/>
<path d="M40.4367 16.3858H27.1051C27.5828 18.8672 29.6507 20.4572 32.6098 20.4572C34.5184 20.4572 36.0134 19.8535 37.2232 18.6129L39.3553 21.0634C37.8269 22.8769 35.4431 23.8325 32.5148 23.8325C26.8199 23.8325 23.1287 20.1746 23.1287 15.1143C23.1287 10.0539 26.8508 6.42944 31.9086 6.42944C36.9664 6.42944 40.4983 9.89721 40.4983 15.2093C40.4983 15.5278 40.4675 16.0056 40.4341 16.3858H40.4367ZM27.0742 13.7426H36.7146C36.3961 11.292 34.5184 9.60694 31.9111 9.60694C29.3039 9.60694 27.457 11.2612 27.0742 13.7426Z" fill="#ED4F4F"/>
<path d="M56.6966 13.6474V23.6063H52.9412V21.5385C51.9882 23.0027 50.1413 23.8298 47.5957 23.8298C43.7144 23.8298 41.2638 21.6978 41.2638 18.7386C41.2638 15.7794 43.1724 13.6808 48.3278 13.6808H52.7177V13.4265C52.7177 11.1044 51.3177 9.73526 48.487 9.73526C46.5785 9.73526 44.6057 10.3723 43.3342 11.4203L41.775 8.5254C43.5885 7.12545 46.2291 6.42676 48.9648 6.42676C53.8633 6.42676 56.6966 8.74887 56.6966 13.65V13.6474ZM52.7177 18.2942V16.3214H48.6129C45.908 16.3214 45.176 17.3387 45.176 18.5793C45.176 20.0101 46.3858 20.9348 48.4202 20.9348C50.4547 20.9348 52.0473 20.0435 52.7151 18.2942H52.7177Z" fill="#ED4F4F"/>
<path d="M70.2492 6.42676V10.213C69.8998 10.1488 69.6121 10.118 69.327 10.118C66.3036 10.118 64.3951 11.9007 64.3951 15.3684V23.6089H60.4187V6.61684H64.205V9.09822C65.3506 7.31553 67.4184 6.42676 70.2492 6.42676Z" fill="#ED4F4F"/>
<path d="M99.9974 17.5623C99.9974 21.3794 97.0074 23.6064 91.2792 23.6064H80.2081V1.33569H90.6422C95.9877 1.33569 98.8518 3.59359 98.8518 7.12557C98.8518 9.41687 97.7061 11.1019 95.9877 12.0241C98.374 12.787 99.9974 14.6647 99.9974 17.5597V17.5623ZM84.3437 4.57998V10.7192H90.1978C93.0619 10.7192 94.6828 9.70199 94.6828 7.665C94.6828 5.62801 93.0593 4.57998 90.1978 4.57998H84.3437ZM95.8284 17.1487C95.8284 14.9216 94.1433 13.9352 91.0249 13.9352H84.3437V20.3622H91.0249C94.1433 20.3622 95.8284 19.3758 95.8284 17.1487Z" fill="#ED4F4F"/>
<path d="M118.577 16.3858H105.245C105.723 18.8672 107.791 20.4572 110.75 20.4572C112.659 20.4572 114.154 19.8535 115.363 18.6129L117.496 21.0634C115.967 22.8769 113.583 23.8325 110.655 23.8325C104.96 23.8325 101.269 20.1746 101.269 15.1143C101.269 10.0539 104.991 6.42944 110.049 6.42944C115.107 6.42944 118.639 9.89721 118.639 15.2093C118.639 15.5278 118.608 16.0056 118.574 16.3858H118.577ZM105.214 13.7426H114.855C114.536 11.292 112.659 9.60694 110.051 9.60694C107.444 9.60694 105.597 11.2612 105.214 13.7426Z" fill="#ED4F4F"/>
<path d="M121.092 0H125.068V23.6065H121.092V0Z" fill="#ED4F4F"/>
<path d="M128.919 0H132.895V23.6065H128.919V0Z" fill="#ED4F4F"/>
<path d="M152.651 6.61683L144.698 24.9728C143.139 28.8233 140.976 29.9998 138.145 29.9998C136.46 29.9998 134.678 29.427 133.596 28.4406L135.186 25.5148C135.949 26.2469 137.031 26.6913 138.115 26.6913C139.515 26.6913 140.342 26.0235 141.105 24.3358L141.392 23.6679L133.979 6.61426H138.115L143.46 19.1804L148.836 6.61426H152.653L152.651 6.61683Z" fill="#ED4F4F"/>
</g>
<defs>
<clipPath id="clip0_808_16788">
<rect width="152.651" height="30" fill="white"/>
</clipPath>
</defs>
</svg>
