<svg width="150" height="116" viewBox="0 0 150 116" fill="none" xmlns="http://www.w3.org/2000/svg">
<path d="M140.491 9.93958C134.154 3.64333 125.85 0.5 117.546 0.5C109.243 0.5 100.939 3.64333 94.6023 9.93958L80.155 24.2954C78.7276 19.0437 75.9403 14.07 71.7932 9.93958C65.4568 3.64333 57.1433 0.5 48.8395 0.5C40.5356 0.5 32.2317 3.64333 25.8953 9.93958C25.4613 10.3708 0 35.7475 0 35.7475L80.2514 115.49L140.539 55.585L140.491 55.5371C153.163 42.9446 153.163 22.5321 140.491 9.93958ZM37.7966 21.7654C40.7478 18.8329 44.6827 17.2133 48.8587 17.2229C53.0348 17.2325 58.1946 19.8296 60.8468 22.7717C62.4671 24.5733 64.0294 26.8733 65.1193 30.3042C65.1289 30.3425 65.1482 30.3904 65.1579 30.4287C66.4502 34.5496 65.2929 39.0346 62.2259 42.0821L46.1872 58.0192L23.7736 35.7475C30.8719 28.6654 37.5458 22.0242 37.7966 21.775V21.7654ZM128.599 43.7208L116.698 55.5467L116.746 55.5946L80.2514 91.8579L58.0885 69.8354L71.4942 56.5146V56.5433L92.0562 36.1212L94.6023 33.5912L106.504 21.775C109.455 18.8425 113.38 17.2325 117.546 17.2325C121.713 17.2325 125.648 18.8425 128.589 21.775C131.541 24.7075 133.161 28.6079 133.161 32.7479C133.161 36.8879 131.531 40.7979 128.589 43.7208H128.599Z" fill="#FF6257"/>
</svg>
