<svg width="102" height="20" viewBox="0 0 102 20" fill="none" xmlns="http://www.w3.org/2000/svg">
<g clip-path="url(#clip0_2552_15318)">
<path d="M0 0.890488H6.50512C11.3316 0.890488 14.6254 3.85992 14.6254 8.31407C14.6254 12.7682 11.3299 15.7376 6.50512 15.7376H0V0.890488ZM6.37811 13.4053C9.69418 13.4053 11.8414 11.3897 11.8414 8.31407C11.8414 5.23846 9.69418 3.22288 6.37811 3.22288H2.76339V13.4035H6.37811V13.4053Z" fill="white"/>
<path d="M27.0194 10.9239H18.1113C18.4306 12.5781 19.8123 13.6382 21.7895 13.6382C23.0648 13.6382 24.0638 13.2357 24.8722 12.4086L26.2968 14.0423C25.2755 15.2513 23.6827 15.8883 21.726 15.8883C17.9208 15.8883 15.4543 13.4498 15.4543 10.0762C15.4543 6.70263 17.9414 4.28633 21.321 4.28633C24.7005 4.28633 27.0606 6.59817 27.0606 10.1396C27.0606 10.3519 27.04 10.6704 27.0177 10.9239H27.0194ZM18.0907 9.16174H24.5323C24.3195 7.52804 23.0648 6.40466 21.3227 6.40466C19.5806 6.40466 18.3465 7.50749 18.0907 9.16174Z" fill="white"/>
<path d="M37.8842 9.09838V15.7376H35.3749V14.3591C34.7381 15.3352 33.504 15.8866 31.803 15.8866C29.2096 15.8866 27.5721 14.4653 27.5721 12.4925C27.5721 10.5197 28.8474 9.12064 32.2922 9.12064H35.2255V8.95111C35.2255 7.40303 34.2901 6.49028 32.3986 6.49028C31.1234 6.49028 29.8052 6.91498 28.9556 7.61367L27.9137 5.68371C29.1255 4.75041 30.8899 4.28461 32.7179 4.28461C35.991 4.28461 37.8842 5.83269 37.8842 9.10009V9.09838ZM35.2255 12.1963V10.8811H32.4827C30.6754 10.8811 30.1862 11.5592 30.1862 12.3863C30.1862 13.3402 30.9946 13.9567 32.354 13.9567C33.7134 13.9567 34.7776 13.3624 35.2238 12.1963H35.2255Z" fill="white"/>
<path d="M46.9398 4.28461V6.8088C46.7064 6.76599 46.5142 6.74544 46.3237 6.74544C44.3035 6.74544 43.0282 7.9339 43.0282 10.2457V15.7394H40.3712V4.41134H42.9012V6.06559C43.6667 4.87713 45.0484 4.28461 46.9398 4.28461Z" fill="white"/>
<path d="M66.8173 11.7082C66.8173 14.2529 64.8194 15.7376 60.9919 15.7376H53.5942V0.890488H60.5662C64.138 0.890488 66.0518 2.39575 66.0518 4.75041C66.0518 6.27794 65.2863 7.40132 64.138 8.0161C65.7326 8.5247 66.8173 9.77652 66.8173 11.7065V11.7082ZM56.3576 3.05334V7.14616H60.2693C62.1831 7.14616 63.2661 6.46802 63.2661 5.11003C63.2661 3.75203 62.1813 3.05334 60.2693 3.05334H56.3576ZM64.0316 11.4325C64.0316 9.94777 62.9057 9.29018 60.822 9.29018H56.3576V13.5748H60.822C62.9057 13.5748 64.0316 12.9172 64.0316 11.4325Z" fill="white"/>
<path d="M79.232 10.9239H70.324C70.6432 12.5781 72.0249 13.6382 74.0022 13.6382C75.2775 13.6382 76.2764 13.2357 77.0848 12.4086L78.5094 14.0423C77.4882 15.2513 75.8954 15.8883 73.9387 15.8883C70.1334 15.8883 67.667 13.4498 67.667 10.0762C67.667 6.70263 70.154 4.28633 73.5336 4.28633C76.9132 4.28633 79.2732 6.59817 79.2732 10.1396C79.2732 10.3519 79.2526 10.6704 79.2303 10.9239H79.232ZM70.3034 9.16174H76.745C76.5322 7.52804 75.2775 6.40466 73.5353 6.40466C71.7932 6.40466 70.5591 7.50749 70.3034 9.16174Z" fill="white"/>
<path d="M80.9124 0H83.5693V15.7376H80.9124V0Z" fill="white"/>
<path d="M86.1423 0H88.7993V15.7376H86.1423V0Z" fill="white"/>
<path d="M102 4.41133L96.6861 16.6487C95.6442 19.2157 94.199 20 92.3075 20C91.1816 20 89.9904 19.6181 89.2678 18.9605L90.3303 17.01C90.84 17.4981 91.5626 17.7943 92.2869 17.7943C93.2224 17.7943 93.7751 17.3491 94.2848 16.224L94.4771 15.7787L89.5236 4.40962H92.2869L95.8588 12.7871L99.4512 4.40962H102.002L102 4.41133Z" fill="white"/>
</g>
<defs>
<clipPath id="clip0_2552_15318">
<rect width="102" height="20" fill="white"/>
</clipPath>
</defs>
</svg>
