<svg width="40" height="40" viewBox="0 0 40 40" fill="none" xmlns="http://www.w3.org/2000/svg">
<rect width="40" height="40" rx="20" fill="#FFD9D6"/>
<path d="M20.2151 7.00174C20.2545 7.00058 20.2939 7 20.3334 7C20.3764 7 20.4188 7.00272 20.4604 7.008C27.4269 7.25051 33 12.9744 33 20C33 27.1797 27.1797 33 20 33C12.8203 33 7 27.1797 7 20C7 12.8203 12.8203 7 20 7C20.0718 7 20.1436 7.00058 20.2151 7.00174ZM16.6126 9.53144C16.4871 9.84931 16.4025 10.1831 16.3616 10.5249C16.2846 11.1687 16.3652 11.8216 16.5966 12.4273C16.8279 13.033 17.2031 13.5734 17.6897 14.0019C18.1763 14.4304 18.7598 14.7342 19.3899 14.8872C20.02 15.0401 20.6778 15.0375 21.3067 14.8797C21.9356 14.7219 22.5168 14.4136 23 13.9813C23.4117 13.6131 23.4469 12.9809 23.0787 12.5693C22.7105 12.1577 22.0783 12.1225 21.6666 12.4907C21.425 12.7068 21.1344 12.861 20.82 12.9399C20.5055 13.0188 20.1766 13.02 19.8616 12.9436C19.5465 12.8671 19.2548 12.7152 19.0115 12.501C18.7682 12.2867 18.5806 12.0165 18.4649 11.7137C18.3492 11.4108 18.3089 11.0844 18.3474 10.7625C18.3859 10.4406 18.5021 10.1328 18.686 9.86581C18.8698 9.59878 19.1158 9.38045 19.4028 9.22962C19.6605 9.09417 19.9443 9.01681 20.2344 9.00245C18.9804 8.97624 17.7504 9.16355 16.6126 9.53144ZM16 16.3333C15.352 16.3333 14.7793 16.5938 14.3377 16.9841C13.9239 17.3498 13.885 17.9818 14.2508 18.3956C14.6165 18.8094 15.2485 18.8484 15.6623 18.4826C15.7928 18.3673 15.9081 18.3333 16 18.3333C16.092 18.3333 16.2073 18.3673 16.3377 18.4826C16.7515 18.8484 17.3835 18.8094 17.7493 18.3956C18.115 17.9818 18.0761 17.3498 17.6623 16.9841C17.2208 16.5938 16.6481 16.3333 16 16.3333ZM24 16.3333C23.352 16.3333 22.7793 16.5938 22.3377 16.9841C21.9239 17.3498 21.885 17.9818 22.2508 18.3956C22.6165 18.8094 23.2485 18.8484 23.6623 18.4826C23.7928 18.3673 23.9081 18.3333 24 18.3333C24.092 18.3333 24.2073 18.3673 24.3377 18.4826C24.7515 18.8484 25.3835 18.8094 25.7493 18.3956C26.115 17.9818 26.0761 17.3498 25.6623 16.9841C25.2208 16.5938 24.6481 16.3333 24 16.3333ZM16.5955 23.1966C16.1518 22.8678 15.5255 22.9608 15.1966 23.4045C14.8678 23.8482 14.9608 24.4745 15.4045 24.8034C16.7011 25.7644 18.2867 26.3333 20 26.3333C21.7133 26.3333 23.2989 25.7644 24.5955 24.8034C25.0392 24.4745 25.1323 23.8482 24.8034 23.4045C24.4745 22.9608 23.8482 22.8678 23.4045 23.1966C22.4334 23.9165 21.2612 24.3333 20 24.3333C18.7388 24.3333 17.5666 23.9165 16.5955 23.1966Z" fill="#FF6257"/>
</svg>
